<?xml version="1.0" encoding="iso-8859-1"?>
<!-- Generator: Adobe Illustrator 18.1.1, SVG Export Plug-In . SVG Version: 6.00 Build 0)  -->
<svg version="1.1" id="Capa_1" xmlns="http://www.w3.org/2000/svg" xmlns:xlink="http://www.w3.org/1999/xlink" x="0px" y="0px"
	 viewBox="0 0 491.543 491.543" style="enable-background:new 0 0 491.543 491.543;" xml:space="preserve">
<g>
	<g>
		<g>
			<path style="fill:#010002;" d="M391.57,269.232c-0.584,0-1.156,0.066-1.754,0.076l-4.088-32.709h-4.697l-4.334-33.914
				c-0.605-4.742-4.643-8.295-9.424-8.295h-4.316c0.35-6.375-2.348-12.809-7.797-16.987l-97.217-74.55
				c-0.168-0.128-0.344-0.232-0.515-0.354c-0.519-0.41-1.04-0.816-1.579-1.208c-20.121-14.588-48.259-10.103-62.847,10.019
				L117.95,214.83c-3.549,4.895-5.96,10.266-7.3,15.799h-2.725c-6.345,0-11.487,5.143-11.487,11.487v4.212
				c0,6.343,5.143,11.489,11.487,11.489h4.628c1.303,3.295,3,6.453,5.082,9.396c-2.17,1.927-3.468,3.121-3.468,3.121
				c-4.675-0.686-9.381-1.112-14.231-1.112C44.735,269.221,0,313.911,0,369.161C0,424.356,44.732,469.1,99.945,469.1
				c55.187,0,99.947-44.734,99.947-99.939c0-5.865-0.612-11.563-1.582-17.145l23.829-9.857l0.108,61.056
				c-2.482,3.086-3.978,6.998-3.978,11.258c0,9.924,8.075,18,18,18h41c9.924,0,18-8.076,18-18c0-9.926-8.076-18-18-18h-7.035
				l-0.131-74.152l46.723-19.323c-15.666,17.639-25.168,40.766-25.168,66.176c0,55.19,44.713,99.938,99.951,99.938
				c55.197,0,99.934-44.729,99.934-99.938C491.521,313.933,446.789,269.232,391.57,269.232z M267.968,160.947l62.853,48.197
				c3.629,2.784,7.764,4.246,14.203,4.246c6.438,0,13.887,0,13.887,0l2.967,23.209h-3.105l0.092,0.047H213.3L267.968,160.947z
				 M99.96,450.947c-45.1,0-81.774-36.651-81.774-81.764c0-45.131,36.688-81.773,81.774-81.773c13.334,0,25.769,3.527,36.868,9.193
				l-44.217,75.15c0,0-6.046,9.805-0.088,16.221c5.494,5.916,15.673,1.365,15.673,1.365l72.525-30.021
				c0.375,3.285,0.971,6.492,0.971,9.855C181.707,414.271,145.046,450.947,99.96,450.947z M157.132,310.857
				c7.077,6.957,12.82,15.279,17.054,24.439l-41.581,17.164L157.132,310.857z M191.097,328.296
				c-5.766-12.855-14.166-24.221-24.55-33.49l3.707-6.301l43.221,30.524L191.097,328.296z M266.402,297.646l-51.441-36.33h137.883
				L266.402,297.646z M391.57,450.947c-45.076,0-81.74-36.651-81.74-81.764c0-36.389,23.979-66.924,56.896-77.484l9.775,77.363
				c1.049,8.213,7.572,14.166,14.615,13.285c7.066-0.883,11.906-8.291,10.871-16.492l-9.889-78.391
				c44.854,0.287,81.244,36.787,81.244,81.729C473.344,414.271,436.67,450.947,391.57,450.947z"/>
			<path style="fill:#010002;" d="M305.268,118.724c26.59,0,48.131-21.562,48.131-48.152s-21.541-48.141-48.131-48.141
				s-48.152,21.552-48.152,48.141C257.115,97.161,278.678,118.724,305.268,118.724z"/>
		</g>
	</g>
</g>
<g>
</g>
<g>
</g>
<g>
</g>
<g>
</g>
<g>
</g>
<g>
</g>
<g>
</g>
<g>
</g>
<g>
</g>
<g>
</g>
<g>
</g>
<g>
</g>
<g>
</g>
<g>
</g>
<g>
</g>
</svg>
