<?xml version="1.0" encoding="iso-8859-1"?>
<!-- Generator: Adobe Illustrator 18.1.1, SVG Export Plug-In . SVG Version: 6.00 Build 0)  -->
<svg version="1.1" id="Capa_1" xmlns="http://www.w3.org/2000/svg" xmlns:xlink="http://www.w3.org/1999/xlink" x="0px" y="0px"
	 viewBox="0 0 51.23 51.23" style="enable-background:new 0 0 51.23 51.23;" xml:space="preserve">
<g>
	<g>
		<path style="fill:#010002;" d="M47.493,32.104c-0.175-0.479-0.441-0.908-0.77-1.293c-0.577-2.328-1.719-4.998-3.379-7.646
			c-2.658-4.247-9.695-11.09-12.369-12.145c-0.133-0.054-0.253-0.084-0.365-0.111c-0.091-0.659-0.464-1.271-1.348-1.691
			c-1.379-0.647-2.739-1.279-4.016-1.72C23.712,3.139,19.563,0,14.686,0C8.507,0,3.481,5.023,3.481,11.202
			c0,6.178,5.026,11.204,11.205,11.204c5.085,0,9.384-3.41,10.747-8.063c1.017-0.156,1.894-0.103,2.388,0.633
			c1.374,2.044,2.889,8.847,5.405,13.195c-0.636-0.087-1.292-0.135-1.968-0.135c-2.904,0-5.514,0.85-7.357,2.212
			c-1.578-2.462-4.332-4.098-7.474-4.098c-4.161,0-7.64,2.865-8.603,6.729l-0.382,0.003l0.22,18.348l4.537-0.078l1.646-2.916
			c2.86-1.098,6.242-3.932,8.591-6.948c3.184,0.467,7.204,0.733,8.822,0.733c1.752,0,8.379-0.772,10.272-1.467
			C45.942,38.943,48.615,35.158,47.493,32.104z M14.686,14.486c-1.811,0-3.283-1.473-3.283-3.284c0-1.81,1.472-3.281,3.283-3.281
			c1.81,0,3.282,1.472,3.282,3.281C17.968,13.014,16.495,14.486,14.686,14.486z"/>
	</g>
</g>
<g>
</g>
<g>
</g>
<g>
</g>
<g>
</g>
<g>
</g>
<g>
</g>
<g>
</g>
<g>
</g>
<g>
</g>
<g>
</g>
<g>
</g>
<g>
</g>
<g>
</g>
<g>
</g>
<g>
</g>
</svg>
