<?xml version="1.0" encoding="iso-8859-1"?>
<!-- Generator: Adobe Illustrator 17.1.0, SVG Export Plug-In . SVG Version: 6.00 Build 0)  -->
<!DOCTYPE svg PUBLIC "-//W3C//DTD SVG 1.1//EN" "http://www.w3.org/Graphics/SVG/1.1/DTD/svg11.dtd">
<svg version="1.1" id="Capa_1" xmlns="http://www.w3.org/2000/svg" xmlns:xlink="http://www.w3.org/1999/xlink" x="0px" y="0px"
	 viewBox="0 0 99.203 99.203" style="enable-background:new 0 0 99.203 99.203;" xml:space="preserve">
<g>
	<path d="M72.146,43.389l-6.591-3.961c-0.798-0.479-1.915-1.602-2.389-2.403l-7.503-12.663c-0.059-0.099-0.135-0.188-0.206-0.281
		c-0.526-0.871-1.472-1.46-2.561-1.46H39.834h-1.766h-0.543c-1.409,0-2.965,0.941-3.618,2.189l-7.894,15.066
		c-0.652,1.245-0.548,3.061,0.243,4.223l5.447,8.007l-4.867,8.594c-0.414,0.73-0.478,1.553-0.175,2.258
		c0.303,0.705,0.943,1.226,1.757,1.43l7.232,1.809v29.005c0,2.206,1.794,4,4,4h0.976c2.206,0,4-1.794,4-4V68.348
		c0.339,0.033,0.698,0.052,1.068,0.052c0.472,0,0.926-0.03,1.345-0.083v26.886c0,2.206,1.794,4,4,4h0.976c2.206,0,4-1.794,4-4V66.08
		l6.542-1.68c0.812-0.208,1.45-0.733,1.75-1.44s0.236-1.53-0.177-2.259l-6.617-11.684c-0.35-0.619-0.938-1.169-1.616-1.572V38.53
		l2.519,4.224c0.659,1.104,2.075,2.419,3.226,2.994l7.158,3.577c0.42,0.21,0.894,0.321,1.37,0.321c1.132,0,2.177-0.599,2.727-1.563
		l0.328-0.574C74.037,46.083,73.554,44.235,72.146,43.389z M35.068,45.264l-1.5-2.037c-0.383-0.52-0.453-1.511-0.147-2.081
		l1.648-3.067V45.264z"/>
	<path d="M45.481,19.672c5.424,0,9.836-4.413,9.836-9.836S50.905,0,45.481,0c-5.423,0-9.836,4.413-9.836,9.836
		S40.058,19.672,45.481,19.672z"/>
</g>
<g>
</g>
<g>
</g>
<g>
</g>
<g>
</g>
<g>
</g>
<g>
</g>
<g>
</g>
<g>
</g>
<g>
</g>
<g>
</g>
<g>
</g>
<g>
</g>
<g>
</g>
<g>
</g>
<g>
</g>
</svg>
