<?xml version="1.0" encoding="iso-8859-1"?>
<!-- Generator: Adobe Illustrator 17.1.0, SVG Export Plug-In . SVG Version: 6.00 Build 0)  -->
<!DOCTYPE svg PUBLIC "-//W3C//DTD SVG 1.1//EN" "http://www.w3.org/Graphics/SVG/1.1/DTD/svg11.dtd">
<svg version="1.1" id="Capa_1" xmlns="http://www.w3.org/2000/svg" xmlns:xlink="http://www.w3.org/1999/xlink" x="0px" y="0px"
	 viewBox="0 0 84.285 84.285" style="enable-background:new 0 0 84.285 84.285;" xml:space="preserve">
<g>
	<path d="M64.45,38.201l-8.574-11.946c-0.836-1.164-2.546-2.042-3.979-2.042h-1.34h-0.91h-15.01h-0.91h-1.34
		c-1.433,0-3.143,0.877-3.979,2.042l-8.574,11.946c-0.862,1.202-0.969,3.153-0.243,4.441l6.53,11.593l-2.597,0.385
		c-1.915,0.284-3.432,2.023-3.453,3.96l-0.237,22.094c-0.01,0.96,0.356,1.866,1.033,2.55c0.677,0.684,1.578,1.061,2.539,1.061h2.41
		c1.985,0,3.6-1.615,3.6-3.6V66.417c0-0.949,0.815-1.944,1.746-2.131l10.979-2.202l10.979,2.202c0.93,0.187,1.746,1.182,1.746,2.131
		v14.268c0,1.985,1.615,3.6,3.6,3.6h2.41c0.961,0,1.862-0.376,2.539-1.061c0.676-0.684,1.043-1.589,1.033-2.55l-0.237-22.094
		c-0.021-1.936-1.538-3.675-3.453-3.96l-2.596-0.385l6.53-11.593C65.419,41.354,65.312,39.403,64.45,38.201z M30.727,47.938
		l-3.373-5.495c-0.369-0.6-0.337-1.673,0.065-2.251l3.308-4.747V47.938z M53.558,35.445l3.308,4.747
		c0.402,0.578,0.434,1.651,0.065,2.251l-3.373,5.495V35.445z"/>
	<path d="M42.142,21.672c5.975,0,10.835-4.861,10.835-10.836S48.116,0,42.142,0c-5.975,0-10.836,4.861-10.836,10.836
		S36.167,21.672,42.142,21.672z"/>
</g>
<g>
</g>
<g>
</g>
<g>
</g>
<g>
</g>
<g>
</g>
<g>
</g>
<g>
</g>
<g>
</g>
<g>
</g>
<g>
</g>
<g>
</g>
<g>
</g>
<g>
</g>
<g>
</g>
<g>
</g>
</svg>
