<?xml version="1.0" encoding="iso-8859-1"?>
<!-- Generator: Adobe Illustrator 18.0.0, SVG Export Plug-In . SVG Version: 6.00 Build 0)  -->
<!DOCTYPE svg PUBLIC "-//W3C//DTD SVG 1.1//EN" "http://www.w3.org/Graphics/SVG/1.1/DTD/svg11.dtd">
<svg version="1.1" id="Capa_1" xmlns="http://www.w3.org/2000/svg" xmlns:xlink="http://www.w3.org/1999/xlink" x="0px" y="0px"
	 viewBox="0 0 495.682 495.682" style="enable-background:new 0 0 495.682 495.682;" xml:space="preserve">
<path d="M155.647,56.119c17.356-10.314,42.013-11.037,71.301-2.088c8.396,2.565,16.991,5.308,25.302,7.959
	c47.151,15.044,95.392,30.439,153.475,30.437c26.574-0.001,55.219-3.225,86.745-11.18c2.275-0.574,3.655-2.885,3.081-5.161
	c-0.575-2.275-2.879-3.658-5.161-3.081c-98.08,24.749-167.971,2.451-235.557-19.113c-8.336-2.66-16.956-5.41-25.403-7.991
	c-40.359-12.332-65.053-5.049-78.663,3.233c-13.065,7.95-18.713,18.23-20.146,21.215h-27.785c-2.347,0-4.25,1.903-4.25,4.25v44.411
	c-21.235,4.197-37.911,13.92-49.571,28.958c-13.571,17.504-20.452,42.422-20.452,74.061c0,22.45,3.173,45.001,9.081,66.005
	C20.012,279.195,8.5,260.899,8.5,240.891c0-2.347-1.903-4.25-4.25-4.25c-2.347,0-4.25,1.903-4.25,4.25
	c0,25.412,15.988,48.456,39.785,57.344c0.351,0.131,0.708,0.196,1.064,0.232c4.826,14.472,10.986,28.031,18.33,40.087
	c19.48,31.978,44.833,50.291,71.791,52.038v61.522c0,2.347,1.903,4.25,4.25,4.25c2.347,0,4.25-1.903,4.25-4.25v-61.522
	c26.958-1.746,52.311-20.06,71.792-52.038c7.45-12.229,13.678-26.007,18.534-40.713c0.077-0.027,0.157-0.039,0.233-0.071
	c14.738-6.129,25.915-18.487,31.52-33.853c9.116,22.364,31.096,38.168,56.697,38.168c25.836,0,47.982-16.092,56.943-38.782
	c8.961,22.69,31.108,38.782,56.945,38.782c33.742,0,61.193-27.452,61.193-61.194c0-2.347-1.902-4.25-4.25-4.25
	c-2.348,0-4.25,1.903-4.25,4.25c0,29.056-23.638,52.694-52.693,52.694c-29.057,0-52.695-23.639-52.695-52.694
	c0-2.347-1.902-4.25-4.25-4.25c-2.348,0-4.25,1.903-4.25,4.25c0,29.056-23.638,52.694-52.693,52.694
	c-29.056,0-52.693-23.639-52.693-52.694c0-2.347-1.902-4.25-4.25-4.25c-2.348,0-4.25,1.903-4.25,4.25
	c0,19.439-9.173,36.649-23.872,45.735c5.657-20.602,8.695-42.646,8.695-64.596c0-59.489-22.924-93.258-70.023-103.194V74.6
	c0-2.347-1.903-4.25-4.25-4.25h-27.168C142.963,66.563,147.733,60.822,155.647,56.119z M116.954,78.85
	c-0.793,0.772-1.289,1.847-1.289,3.042v55.978c-2.964,0.41-5.822,0.921-8.578,1.533V78.85H116.954z M213.063,215.987H57.375
	c3.437-48.268,28.406-70.884,77.844-70.884C184.658,145.103,209.627,167.719,213.063,215.987z M213.493,228.072
	c0,11.919-1.093,23.655-3.108,34.923H60.054c-2.015-11.268-3.108-23.004-3.108-34.923c0-1.215,0.027-2.397,0.05-3.584h156.447
	C213.466,225.674,213.493,226.856,213.493,228.072z M185.87,271.494c-8.671,40.984-31.844,70.284-56.092,70.284
	c-2.347,0-4.25,1.903-4.25,4.25c0,2.347,1.903,4.25,4.25,4.25c15.198,0,29.696-8.606,41.926-24.888
	c10.617-14.134,18.668-33.185,22.836-53.896h14.128c-11.359,50.552-41.273,89.695-73.448,89.695
	c-32.175,0-62.089-39.142-73.448-89.695H185.87z M233.375,222.031c0,85.347-45.867,160.212-98.156,160.212
	c-52.288,0-98.155-74.865-98.155-160.212c0-53.837,20.694-85.556,61.523-94.356v14.047c-9.544,3.117-17.692,7.66-24.534,13.702
	c-16.992,15.004-25.607,39.446-25.607,72.648c0,34.347,9.019,69.583,24.745,96.671c16.827,28.984,38.855,44.947,62.028,44.947
	c23.173,0,45.202-15.963,62.029-44.947c15.726-27.088,24.745-62.324,24.745-96.671c0-33.202-8.616-57.644-25.608-72.648
	c-6.842-6.041-14.989-10.584-24.533-13.702v-14.2C213.796,137.062,233.375,167.2,233.375,222.031z M163.352,139.402
	c-8.406-1.865-17.753-2.799-28.133-2.799c-3.828,0-7.501,0.14-11.054,0.392V81.891c0-1.194-0.496-2.27-1.289-3.042h40.476V139.402z"
	/>
<g>
</g>
<g>
</g>
<g>
</g>
<g>
</g>
<g>
</g>
<g>
</g>
<g>
</g>
<g>
</g>
<g>
</g>
<g>
</g>
<g>
</g>
<g>
</g>
<g>
</g>
<g>
</g>
<g>
</g>
</svg>
