<?xml version="1.0" encoding="iso-8859-1"?>
<!-- Generator: Adobe Illustrator 18.1.1, SVG Export Plug-In . SVG Version: 6.00 Build 0)  -->
<svg version="1.1" id="Capa_1" xmlns="http://www.w3.org/2000/svg" xmlns:xlink="http://www.w3.org/1999/xlink" x="0px" y="0px"
	 viewBox="0 0 460 460" style="enable-background:new 0 0 460 460;" xml:space="preserve">
<g>
	<g id="Layer_1_48_">
		<g>
			<path d="M408.495,55.99c-6.917,0-12.525,5.607-12.525,12.525v21.874h-68.959c-0.142-3.696-1.485-7.328-3.906-10.204
				c-4.14-4.917-10.956-7.012-17.145-5.297c-5.088,1.41-9.128,5.162-11.096,10.031c-0.736,1.823-1.475,3.647-2.212,5.47H167.328
				c-0.395-0.975-0.709-1.75-0.908-2.246c-1.053-2.602-1.979-5.244-3.742-7.478c-4.005-5.074-10.795-7.446-17.08-5.895
				c-6.241,1.54-11.135,6.679-12.37,12.987c-0.172,0.877-0.246,1.755-0.258,2.631H64.03V68.516c0-6.918-5.608-12.525-12.525-12.525
				S38.98,61.598,38.98,68.516v210.533c0,4.529,2.412,8.484,6.013,10.684V460h13.026V289.733c3.6-2.2,6.012-6.155,6.012-10.684
				V103.416h72.072c0.137,0.398,0.271,0.795,0.397,1.188c4.938,15.204,15.625,48.275,16.16,49.554
				c2.299,5.491,7.198,9.587,13.023,10.831c5.283,1.126,10.495-0.226,14.855-3.309c3.088-2.184,6.193-4.333,9.37-6.391l0.157,64.779
				c-0.029,0.052-65.074,107.839-65.074,107.839c-6.315,10.464-2.072,24.539,9.023,29.705c9.389,4.371,20.365,0.951,26.163-7.436
				l64.863-93.814c0,0,1.327,0.137,1.471,0.149c1.156,0.103,2.317,0.159,3.478,0.159c0.996,0,1.992-0.041,2.985-0.118
				c0.207-0.016,1.96-0.194,1.96-0.194l64.866,93.818c5.501,7.958,15.762,11.506,24.909,7.966
				c11.894-4.603,16.897-19.266,10.313-30.178l-64.973-108.391l0.021-64.148c0-0.045,0-0.091,0-0.136
				c3.511,2.276,6.862,4.774,10.351,7.079c5.656,3.737,13.092,4.001,18.998,0.686c4.125-2.316,7.064-6.113,8.518-10.587
				c0.475-1.461,11.084-34.131,15.929-49.05h72.104V279.05c0,4.529,2.412,8.484,6.012,10.684V460h13.026V289.733
				c3.601-2.2,6.012-6.155,6.012-10.684V68.516C421.02,61.597,415.412,55.99,408.495,55.99z M281.836,117.144
				c-7.141-4.639-26.162-11.869-51.846-11.869s-42.843,6.02-51.847,11.869c-1.093-2.703-3.313-8.197-5.55-13.728h114.793
				C285.537,107.992,283.687,112.568,281.836,117.144z"/>
			<path d="M200.947,77.877c10.337,8.994,24.81,12.669,38.201,9.875c12.957-2.701,24.27-11.452,30.338-23.188
				c12.937-25.026-1.558-56.381-28.732-63.255c-18.907-4.783-39.301,3.866-49.125,20.693
				C181.016,40.173,185.053,64.127,200.947,77.877z"/>
		</g>
	</g>
</g>
<g>
</g>
<g>
</g>
<g>
</g>
<g>
</g>
<g>
</g>
<g>
</g>
<g>
</g>
<g>
</g>
<g>
</g>
<g>
</g>
<g>
</g>
<g>
</g>
<g>
</g>
<g>
</g>
<g>
</g>
</svg>
