<?xml version="1.0" encoding="iso-8859-1"?>
<!-- Generator: Adobe Illustrator 16.0.0, SVG Export Plug-In . SVG Version: 6.00 Build 0)  -->
<!DOCTYPE svg PUBLIC "-//W3C//DTD SVG 1.1//EN" "http://www.w3.org/Graphics/SVG/1.1/DTD/svg11.dtd">
<svg version="1.1" id="Capa_1" xmlns="http://www.w3.org/2000/svg" xmlns:xlink="http://www.w3.org/1999/xlink" x="0px" y="0px"
	 width="487.203px" height="487.203px" viewBox="0 0 487.203 487.203" style="enable-background:new 0 0 487.203 487.203;"
	 xml:space="preserve">
<g>
	<g id="_x36_1_54_">
		<path d="M360.343,295.069c-27.223-9.923-45.115-19.063-56.182-30.233v12.295c0,31.851-24.74,57.76-55.287,59.717v66.016
			c-0.681,19.77,13.572,34.348,31.168,34.348c17.592,0,31.996-14.578,31.996-33.848l-0.021-28.439
			c0-26.199,19.941-47.496,44.471-47.496c24.527,0,44.473,21.297,44.473,47.496v32.5c0,0.492-0.17,0.883-0.266,1.352
			c9.268,3.162,15.988,11.871,15.988,22.197c0,12.979-10.572,23.549-23.551,23.549c-13,0-23.547-10.57-23.547-23.549
			c0-11.393,8.131-20.922,18.914-23.082c-0.023-0.17-0.102-0.283-0.102-0.467v-32.5c0-19.256-14.324-34.937-31.912-34.937
			s-31.912,15.681-31.912,34.937l0.023,28.439c0,26.201-19.959,47.504-44.486,47.504c-24.531,0-44.477-21.303-44.477-47.504v-66.325
			c-29.752-3.896-52.869-29.125-52.869-59.907v-12.007c-11.087,11.04-28.91,20.108-55.896,29.945
			c-54.264,19.772-89.516,45.927-89.516,59.679c0,13.739,0,132.455,0,132.455h412.498c0,0,0-118.716,0-132.455
			C449.853,340.996,414.599,314.842,360.343,295.069z"/>
		<path d="M154.091,132.256c2.786,37.067,17.376,21.092,20.383,37.33c7.257,39.141,23.771,32.165,23.771,53.535
			c0,8.09-2.92,13.907-2.92,21.582c0,7.676,0,32.428,0,32.428c0,26.534,21.587,48.139,48.139,48.139
			c26.542,0,48.136-21.604,48.136-48.139c0,0,0-27.188,0-33.305c0-6.116-2.641-12.986-2.641-20.705
			c0-21.37,16.516-14.394,23.768-53.535c3.012-16.238,17.598-0.263,20.395-37.33c0-14.776-7.961-18.445-7.961-18.445
			s4.041-21.861,5.625-38.688C332.755,54.16,318.677,0,243.603,0c-75.066,0-89.147,54.16-87.181,75.123
			c1.584,16.826,5.633,38.688,5.633,38.688S154.091,117.48,154.091,132.256z"/>
		<path d="M393.134,441.963c6.049,0,10.99-4.955,10.99-10.99c0-6.047-4.941-10.99-10.99-10.99c-6.045,0-10.988,4.943-10.988,10.99
			C382.146,437.008,387.089,441.963,393.134,441.963z"/>
	</g>
</g>
<g>
</g>
<g>
</g>
<g>
</g>
<g>
</g>
<g>
</g>
<g>
</g>
<g>
</g>
<g>
</g>
<g>
</g>
<g>
</g>
<g>
</g>
<g>
</g>
<g>
</g>
<g>
</g>
<g>
</g>
</svg>
