<?xml version="1.0" encoding="iso-8859-1"?>
<!-- Generator: Adobe Illustrator 17.1.0, SVG Export Plug-In . SVG Version: 6.00 Build 0)  -->
<!DOCTYPE svg PUBLIC "-//W3C//DTD SVG 1.1//EN" "http://www.w3.org/Graphics/SVG/1.1/DTD/svg11.dtd">
<svg version="1.1" id="Capa_1" xmlns="http://www.w3.org/2000/svg" xmlns:xlink="http://www.w3.org/1999/xlink" x="0px" y="0px"
	 viewBox="0 0 481.066 481.066" style="enable-background:new 0 0 481.066 481.066;" xml:space="preserve">
<path d="M462.977,421.729c-1.74-3.251-5.128-5.281-8.816-5.281h-81.864c37.149-21.988,62.117-62.467,62.117-108.675V158.731
	c0-5.523-4.478-10-10-10H126.951c-5.522,0-10,4.477-10,10v37.067H81.574c-35.658,0-64.668,29.01-64.668,64.667
	c0,38.279,31.143,69.421,69.422,69.421c5.522,0,10-4.477,10-10s-4.478-10-10-10c-27.251,0-49.422-22.17-49.422-49.421
	c0-24.63,20.038-44.667,44.668-44.667h35.377v91.974c0,46.208,24.969,86.687,62.117,108.675H97.205c-3.688,0-7.076,2.03-8.816,5.281
	c-1.74,3.252-1.55,7.197,0.496,10.266c20.485,30.728,54.763,49.072,91.692,49.072h190.211c36.93,0,71.207-18.345,91.692-49.072
	C464.526,428.926,464.717,424.98,462.977,421.729z M136.951,307.772V168.731h277.463v139.041
	c0,58.557-47.64,106.196-106.196,106.196h-65.07C184.591,413.968,136.951,366.329,136.951,307.772z M370.788,461.066H180.577
	c-23.344,0-45.395-8.956-61.949-24.619h314.109C416.183,452.11,394.132,461.066,370.788,461.066z M197.268,106.078
	c-7.417-7.912-16.648-17.758-16.648-36.586c0-18.828,9.231-28.674,16.648-36.585c6.525-6.96,11.239-11.988,11.239-22.907
	c0-5.523,4.478-10,10-10s10,4.477,10,10c0,18.828-9.231,28.674-16.648,36.585c-6.525,6.96-11.239,11.988-11.239,22.907
	c0,10.919,4.715,15.947,11.239,22.907c7.417,7.912,16.648,17.758,16.648,36.585c0,5.523-4.478,10-10,10s-10-4.477-10-10
	C208.507,118.066,203.793,113.038,197.268,106.078z M256.761,106.078c-7.418-7.912-16.648-17.758-16.648-36.586
	s9.23-28.674,16.648-36.585c6.524-6.959,11.238-11.988,11.238-22.907c0-5.523,4.478-10,10-10s10,4.477,10,10
	c0,18.828-9.23,28.674-16.648,36.585c-6.524,6.959-11.238,11.988-11.238,22.907c0,10.919,4.714,15.947,11.239,22.907
	c7.417,7.912,16.647,17.758,16.647,36.585c0,5.523-4.478,10-10,10s-10-4.477-10-10C267.999,118.066,263.285,113.038,256.761,106.078
	z M316.253,106.078c-7.418-7.912-16.648-17.758-16.648-36.586s9.23-28.674,16.648-36.585c6.524-6.959,11.238-11.988,11.238-22.907
	c0-5.523,4.478-10,10-10s10,4.477,10,10c0,18.828-9.23,28.674-16.648,36.585c-6.524,6.959-11.238,11.988-11.238,22.907
	c0,10.919,4.714,15.947,11.239,22.907c7.417,7.912,16.647,17.758,16.647,36.585c0,5.523-4.478,10-10,10s-10-4.477-10-10
	C327.491,118.066,322.777,113.038,316.253,106.078z"/>
<g>
</g>
<g>
</g>
<g>
</g>
<g>
</g>
<g>
</g>
<g>
</g>
<g>
</g>
<g>
</g>
<g>
</g>
<g>
</g>
<g>
</g>
<g>
</g>
<g>
</g>
<g>
</g>
<g>
</g>
</svg>
