<?xml version="1.0" encoding="iso-8859-1"?>
<!-- Generator: Adobe Illustrator 16.0.0, SVG Export Plug-In . SVG Version: 6.00 Build 0)  -->
<!DOCTYPE svg PUBLIC "-//W3C//DTD SVG 1.1//EN" "http://www.w3.org/Graphics/SVG/1.1/DTD/svg11.dtd">
<svg version="1.1" id="Capa_1" xmlns="http://www.w3.org/2000/svg" xmlns:xlink="http://www.w3.org/1999/xlink" x="0px" y="0px"
	 width="124.444px" height="124.445px" viewBox="0 0 124.444 124.445" style="enable-background:new 0 0 124.444 124.445;"
	 xml:space="preserve">
<g>
	<g>
		<path d="M119.992,60.352l-61.015-33.85c-1.204-0.877-7.838-3.655-11.551-3.655c-1.413,0.011-2.834,0.174-4.22,0.483
			c-6.489,1.449-13.01,6.431-12.941,14.293l0.105,13.664c-3.417-1.721-7.616-0.544-9.582,2.799L1.008,87.762
			c-1.328,2.262-1.345,5.063-0.042,7.339s3.727,3.682,6.349,3.682l39.931-0.004c0.404,0,0.799-0.041,1.187-0.104
			c1.867-0.116,3.749-0.521,3.749-0.521l0.058-0.012c6.322-1.605,13.028-6.828,12.961-14.576L64.936,49.58l46.671,25.891
			c1.328,0.737,2.768,1.088,4.186,1.088c3.039,0,5.988-1.606,7.566-4.452C125.674,67.93,124.165,62.668,119.992,60.352z
			 M30.489,66.457l0.135,17.406c0.001,0.1,0.017,0.19,0.019,0.289H20.095L30.489,66.457z"/>
		<circle cx="84.429" cy="82.755" r="18.842"/>
	</g>
</g>
<g>
</g>
<g>
</g>
<g>
</g>
<g>
</g>
<g>
</g>
<g>
</g>
<g>
</g>
<g>
</g>
<g>
</g>
<g>
</g>
<g>
</g>
<g>
</g>
<g>
</g>
<g>
</g>
<g>
</g>
</svg>
