<?xml version="1.0" encoding="iso-8859-1"?>
<!-- Generator: Adobe Illustrator 16.0.0, SVG Export Plug-In . SVG Version: 6.00 Build 0)  -->
<!DOCTYPE svg PUBLIC "-//W3C//DTD SVG 1.1//EN" "http://www.w3.org/Graphics/SVG/1.1/DTD/svg11.dtd">
<svg version="1.1" id="Capa_1" xmlns="http://www.w3.org/2000/svg" xmlns:xlink="http://www.w3.org/1999/xlink" x="0px" y="0px"
	 width="120.865px" height="120.865px" viewBox="0 0 120.865 120.865" style="enable-background:new 0 0 120.865 120.865;"
	 xml:space="preserve">
<g>
	<g>
		<circle cx="58.968" cy="14.29" r="14.29"/>
		<path d="M100.444,55.988l-0.967-0.698c-0.172-1.063-0.362-2.131-0.582-3.209c-0.391-1.91-2.252-3.143-4.164-2.754
			c-0.783,0.16-1.443,0.576-1.934,1.133l-4.22-3.052c-0.567-2.62-2.976-4.526-5.722-4.36c-4.211,0.231-8.832,0.242-10.469,0.037
			c-2.074-1.397-8.68-6.88-14.579-11.971c-0.525-0.543-1.078-1.044-1.652-1.483l-0.036-0.024c0,0-1.42-1.01-2.809-1.654
			c-1.453-0.675-3.012-0.867-3.012-0.867c-4.843-0.844-11.125,0.693-13.474,6.056L24.174,62.033
			c-2.392,5.462,0.668,10.88,4.763,13.826c0.515,0.371,1.059,0.699,1.615,1.003h-8.268c-1.605,0-2.908,1.303-2.908,2.907
			c0,1.606,1.302,2.908,2.908,2.908h2.528c-2.068,5.58-3.046,12.666,1.458,16.371c-0.06,0.627-0.097,1.26-0.097,1.902
			c0,10.98,8.933,19.914,19.914,19.914c2.19,0,4.292-0.37,6.265-1.023c0.16-0.006,0.322-0.025,0.484-0.064l37.063-9.317
			c0.113-0.028,0.217-0.071,0.32-0.114c4.014-1.238,6.939-4.979,6.939-9.394c0-2.968-1.329-5.622-3.416-7.422
			c5.395-9.231,7.587-20.632,6.372-33.256c0.344-0.175,0.655-0.43,0.896-0.765C101.826,58.38,101.573,56.804,100.444,55.988z
			 M76.494,54.344c1.864,0,4.155-0.063,6.978-0.22c1.406-0.077,2.655-0.677,3.584-1.593l5.469,3.953
			c2.215,13.522,0.359,25.226-5.385,34.364l-22.994-5.849c2.359-5.92,1.515-7.563,0.636-9.25c-1.021-1.956-2.242-4.288-14.886-7.077
			l9.496-21.682c6.924,5.687,8.302,6.229,8.924,6.473C68.947,53.712,70.562,54.344,76.494,54.344z M30.273,82.678h5.167
			c1.584,0,2.867-1.269,2.901-2.845c2.25,0.39,4.526,0.817,6.662,1.259c-7.418,0.402-13.756,4.869-16.832,11.221
			C27.807,89.352,29.126,85.321,30.273,82.678z M46.086,116.34c-8.485,0-15.389-6.904-15.389-15.389s6.904-15.389,15.389-15.389
			c1.069,0,2.112,0.111,3.121,0.318c-2.679,5.086-6.547,11.807-10.117,17.613c-1.896,3.084-0.933,7.123,2.151,9.02
			c1.071,0.658,2.257,0.973,3.428,0.973c2.202,0,4.353-1.11,5.591-3.124c4.172-6.785,7.262-12.112,9.542-16.353
			c1.062,2.088,1.673,4.441,1.673,6.94C61.475,109.436,54.571,116.34,46.086,116.34z"/>
	</g>
</g>
<g>
</g>
<g>
</g>
<g>
</g>
<g>
</g>
<g>
</g>
<g>
</g>
<g>
</g>
<g>
</g>
<g>
</g>
<g>
</g>
<g>
</g>
<g>
</g>
<g>
</g>
<g>
</g>
<g>
</g>
</svg>
