<?xml version="1.0" encoding="iso-8859-1"?>
<!-- Generator: Adobe Illustrator 18.0.0, SVG Export Plug-In . SVG Version: 6.00 Build 0)  -->
<!DOCTYPE svg PUBLIC "-//W3C//DTD SVG 1.1//EN" "http://www.w3.org/Graphics/SVG/1.1/DTD/svg11.dtd">
<svg version="1.1" id="Capa_1" xmlns="http://www.w3.org/2000/svg" xmlns:xlink="http://www.w3.org/1999/xlink" x="0px" y="0px"
	 viewBox="0 0 377.211 377.211" style="enable-background:new 0 0 377.211 377.211;" xml:space="preserve">
<g>
	<g>
		<g>
			<path d="M188.606,350.236c-28.209,0-51.156-22.947-51.156-51.154c0-28.208,22.947-51.156,51.156-51.156
				c28.207,0,51.154,22.948,51.154,51.156C239.761,327.289,216.813,350.236,188.606,350.236z M188.606,262.926
				c-19.938,0-36.156,16.22-36.156,36.156c0,19.936,16.219,36.154,36.156,36.154c19.936,0,36.154-16.219,36.154-36.154
				C224.761,279.146,208.542,262.926,188.606,262.926z"/>
		</g>
		<path d="M315.265,10.664c1.08-2.322,0.9-5.036-0.477-7.196C313.411,1.308,311.026,0,308.464,0H68.747
			c-2.561,0-4.945,1.308-6.324,3.468c-1.377,2.16-1.557,4.874-0.475,7.196l91.918,197.526v20.938
			c-25.691,12.812-43.391,39.348-43.391,69.953c0,43.08,35.049,78.129,78.131,78.129c43.08,0,78.129-35.049,78.129-78.129
			c0-30.605-17.699-57.143-43.393-69.953v-20.938L315.265,10.664z M296.702,15l-83.445,179.313l-16.447-35.347L263.936,15H296.702z
			 M188.542,141.199l-39.35-84.559h78.777L188.542,141.199z M247.386,15l-12.422,26.641h-92.752L129.815,15H247.386z M80.511,15
			h32.762l85.637,184.031h-32.76L80.511,15z M251.735,299.082c0,34.81-28.32,63.129-63.129,63.129
			c-34.811,0-63.131-28.319-63.131-63.129c0-34.81,28.32-63.129,63.131-63.129C223.415,235.953,251.735,264.272,251.735,299.082z
			 M188.606,220.953c-6.818,0-13.432,0.883-19.74,2.531v-9.453h39.477v9.453C202.036,221.836,195.423,220.953,188.606,220.953z"/>
	</g>
</g>
<g>
</g>
<g>
</g>
<g>
</g>
<g>
</g>
<g>
</g>
<g>
</g>
<g>
</g>
<g>
</g>
<g>
</g>
<g>
</g>
<g>
</g>
<g>
</g>
<g>
</g>
<g>
</g>
<g>
</g>
</svg>
