<?xml version="1.0" encoding="iso-8859-1"?>
<!-- Generator: Adobe Illustrator 18.1.1, SVG Export Plug-In . SVG Version: 6.00 Build 0)  -->
<svg version="1.1" id="Capa_1" xmlns="http://www.w3.org/2000/svg" xmlns:xlink="http://www.w3.org/1999/xlink" x="0px" y="0px"
	 viewBox="0 0 434.736 434.736" style="enable-background:new 0 0 434.736 434.736;" xml:space="preserve">
<g>
	<g id="Layer_1">
		<g>
			<path d="M357.205,275.198l-9.731-73.657c-0.12-0.865-0.329-1.811-0.612-2.668l-0.428-1.293l-25.261-76.324
				c-0.177-0.528-0.392-1.108-0.607-1.63c-4.984-12-86.54-42.732-97.354-41.155L90.175,97.869
				c-7.348,1.063-12.935,7.448-12.805,15.067c0.143,8.265,6.957,14.849,15.221,14.706l107.767-1.848l-44.295,115.861l-54.117,79.14
				c-4.766,6.958-4.115,16.542,2.019,22.786c6.97,7.094,18.372,7.195,25.466,0.225l64.957-63.814l-13.498,46.399l-54.54,80.312
				c-5.035,7.475-3.81,17.775,3.217,23.753c7.55,6.425,18.877,5.512,25.302-2.037l66.124-77.707c0.946-1.123,1.79-2.455,2.392-3.877
				l1.047-2.472l67.891-170.07l15.07,36.286l12.991,70.446c1.804,9.68,10.903,16.409,20.78,15.104
				C351.372,294.778,358.555,285.407,357.205,275.198z"/>
			<circle cx="295.325" cy="44.742" r="44.742"/>
			<path d="M295.325,344.734c-24.813,0-45,20.187-45,45s20.188,45,45,45c24.813,0,45-20.187,45-45S320.139,344.734,295.325,344.734z
				 M326.986,403.497l-7.945-13.763l7.945-13.763h1.09c1.786,4.234,2.775,8.885,2.775,13.763s-0.989,9.528-2.775,13.763H326.986z
				 M307.96,356.538l-4.688,8.119h-15.893l-4.688-8.119c3.928-1.501,8.185-2.33,12.634-2.33
				C299.775,354.208,304.031,355.037,307.96,356.538z M311.219,389.734l-7.947,13.763h-15.893l-7.946-13.763l7.946-13.763h15.893
				L311.219,389.734z M262.575,375.971h1.09l7.945,13.763l-7.945,13.763h-1.09c-1.786-4.234-2.776-8.885-2.776-13.763
				S260.789,380.206,262.575,375.971z M282.691,422.93l4.688-8.119h15.893l4.688,8.119c-3.929,1.501-8.185,2.33-12.635,2.33
				C290.876,425.261,286.619,424.431,282.691,422.93z"/>
		</g>
	</g>
</g>
<g>
</g>
<g>
</g>
<g>
</g>
<g>
</g>
<g>
</g>
<g>
</g>
<g>
</g>
<g>
</g>
<g>
</g>
<g>
</g>
<g>
</g>
<g>
</g>
<g>
</g>
<g>
</g>
<g>
</g>
</svg>
