<?xml version="1.0" encoding="iso-8859-1"?>
<!-- Generator: Adobe Illustrator 16.0.0, SVG Export Plug-In . SVG Version: 6.00 Build 0)  -->
<!DOCTYPE svg PUBLIC "-//W3C//DTD SVG 1.1//EN" "http://www.w3.org/Graphics/SVG/1.1/DTD/svg11.dtd">
<svg version="1.1" id="Capa_1" xmlns="http://www.w3.org/2000/svg" xmlns:xlink="http://www.w3.org/1999/xlink" x="0px" y="0px"
	 width="496.945px" height="496.946px" viewBox="0 0 496.945 496.946" style="enable-background:new 0 0 496.945 496.946;"
	 xml:space="preserve">
<g>
	<g>
		<circle cx="259.541" cy="81.779" r="60.109"/>
		<polygon points="409.684,366.524 356.596,168.22 403.979,168.22 462.404,232.768 482.477,188.601 430.58,120.786 340.848,120.786 
			240.822,161.408 188.59,161.408 143.532,108.439 124.27,143.862 159.921,213.706 253.553,213.706 273.766,301.2 202.569,320.755 
			170.204,446.749 202.474,475.275 245.167,373.38 338.988,347.612 348.303,390.167 483.537,474.279 496.945,434.317 		"/>
		<circle cx="63.084" cy="181.183" r="28.032"/>
		<polygon points="133.103,313.975 103.246,204.187 54.354,218.319 29.996,218.319 8.982,193.616 0,210.135 16.625,242.707 
			60.292,242.707 69.717,283.511 36.514,292.631 21.421,351.389 36.471,364.691 56.38,317.172 100.134,305.155 104.479,325 
			167.545,364.226 173.799,345.59 		"/>
	</g>
</g>
<g>
</g>
<g>
</g>
<g>
</g>
<g>
</g>
<g>
</g>
<g>
</g>
<g>
</g>
<g>
</g>
<g>
</g>
<g>
</g>
<g>
</g>
<g>
</g>
<g>
</g>
<g>
</g>
<g>
</g>
</svg>
