<?xml version="1.0" encoding="iso-8859-1"?>
<!-- Generator: Adobe Illustrator 16.0.0, SVG Export Plug-In . SVG Version: 6.00 Build 0)  -->
<!DOCTYPE svg PUBLIC "-//W3C//DTD SVG 1.1//EN" "http://www.w3.org/Graphics/SVG/1.1/DTD/svg11.dtd">
<svg version="1.1" id="Capa_1" xmlns="http://www.w3.org/2000/svg" xmlns:xlink="http://www.w3.org/1999/xlink" x="0px" y="0px"
	 width="121.423px" height="121.424px" viewBox="0 0 121.423 121.424" style="enable-background:new 0 0 121.423 121.424;"
	 xml:space="preserve">
<g>
	<path d="M90.208,114.601L78.176,67.321c-0.148-0.583-0.388-1.117-0.696-1.598c0.033-1.419-0.248-2.861-0.911-4.261L65.295,37.678
		c-0.366-0.773-0.828-1.453-1.353-2.061c4.081-6.674,5.796-14.491,4.695-18.528c-0.6-2.198-4.367-13.343-19.714-16.966
		c-2.49-0.584-4.982,0.954-5.569,3.442c-0.587,2.489,0.954,4.982,3.442,5.569c10.248,2.419,12.551,9.08,12.896,10.342
		c0.301,1.598-0.953,7.52-4.43,12.512c-0.93,0.001-1.857,0.095-2.752,0.278l-1.403,3.975l-3.423-1.316
		c0.131-0.057,0.265-0.102,0.395-0.163c5.951-2.82,8.488-9.931,5.667-15.883c-2.82-5.951-9.931-8.489-15.882-5.668
		c-5.951,2.821-8.489,9.932-5.668,15.883c2.572,5.426,8.708,8,14.283,6.276c-0.87,0.805-1.643,1.736-2.282,2.75
		c-0.195,0.205-0.379,0.424-0.54,0.669c-5.343,8.189-7.174,15.676-5.442,22.252c1.58,6.002,6.009,10.925,13.165,14.632
		c0.681,0.353,1.408,0.52,2.125,0.52c0.342,0,0.68-0.047,1.011-0.122l-8.865,38.656c-0.676,2.945,1.164,5.881,4.109,6.557
		c0.412,0.094,0.823,0.14,1.228,0.14c2.493,0,4.747-1.716,5.328-4.25l9.104-39.698c1.288-0.125,2.575-0.438,3.81-0.93L79.603,117.3
		c0.63,2.476,2.856,4.123,5.298,4.123c0.447,0,0.901-0.055,1.354-0.17C89.183,120.507,90.954,117.528,90.208,114.601z
		 M47.169,58.685c-0.242-0.918-0.344-1.896-0.318-2.926l4.039,8.521C48.958,62.575,47.702,60.706,47.169,58.685z"/>
</g>
<g>
</g>
<g>
</g>
<g>
</g>
<g>
</g>
<g>
</g>
<g>
</g>
<g>
</g>
<g>
</g>
<g>
</g>
<g>
</g>
<g>
</g>
<g>
</g>
<g>
</g>
<g>
</g>
<g>
</g>
</svg>
