<?xml version="1.0" encoding="iso-8859-1"?>
<!-- Generator: Adobe Illustrator 16.0.0, SVG Export Plug-In . SVG Version: 6.00 Build 0)  -->
<!DOCTYPE svg PUBLIC "-//W3C//DTD SVG 1.1//EN" "http://www.w3.org/Graphics/SVG/1.1/DTD/svg11.dtd">
<svg version="1.1" id="Capa_1" xmlns="http://www.w3.org/2000/svg" xmlns:xlink="http://www.w3.org/1999/xlink" x="0px" y="0px"
	 width="483.308px" height="483.308px" viewBox="0 0 483.308 483.308" style="enable-background:new 0 0 483.308 483.308;"
	 xml:space="preserve">
<g>
	<g id="_x32_8_22_">
		<path d="M455.761,292.526c0.891-15.916-5.816-31.949-17.068-40.832c-14.863-11.23-33.711-12.229-50.359-13.059
			c-2.625-0.145-5.205-0.283-7.748-0.447c-1.896-0.281-4.312-0.543-6.762-0.838c-22.35-2.572-41.123-4.461-43.205-22.287
			c-1.004-8.428-0.398-18.283,1.32-26.691c-0.008-0.002-0.016-0.004-0.021-0.004c4.145-18.414,12.244-37.189,27.51-62.635
			c22.201-37.002,26.607-68.893-3.523-106.425c-30.131-37.53-77.881-11.805-83.166,5.639s16.914,36.298,4.229,70.128
			c-7.182,19.15-51.739,49.598-88.451,81.404c-25.49,22.08-46.737,50.4-50.974,52.857c-10.344,5.986-90.938,0-90.938,0
			c-10.568,0-19.135,9.467-19.135,21.143v184.656c0,11.68,10.078,21.85,19.135,21.145c53.688,0,81.478,2.557,99.213,6.018
			c18.315,3.574,25.907,8.107,40.231,11.777c0,0,36.072,7.654,78.231,8.986c41.35,1.307,88.396-2.619,110.459-11.269
			c1-0.274,1.996-0.551,2.953-0.856c18.252-7.508,28.498-24.16,26.508-41.713c9.139-4.908,16.795-13.888,21.045-24.75
			c3.793-9.711,4.295-19.697,1.557-28.185c16.834-13.969,23.688-37.368,16.438-55.94
			C450.644,313.899,455.13,304.008,455.761,292.526z"/>
	</g>
</g>
<g>
</g>
<g>
</g>
<g>
</g>
<g>
</g>
<g>
</g>
<g>
</g>
<g>
</g>
<g>
</g>
<g>
</g>
<g>
</g>
<g>
</g>
<g>
</g>
<g>
</g>
<g>
</g>
<g>
</g>
</svg>
