<?xml version="1.0" encoding="iso-8859-1"?>
<!-- Generator: Adobe Illustrator 18.1.1, SVG Export Plug-In . SVG Version: 6.00 Build 0)  -->
<svg version="1.1" id="Capa_1" xmlns="http://www.w3.org/2000/svg" xmlns:xlink="http://www.w3.org/1999/xlink" x="0px" y="0px"
	 viewBox="0 0 52.406 52.406" style="enable-background:new 0 0 52.406 52.406;" xml:space="preserve">
<g>
	<g>
		<g>
			<circle style="fill:#010002;" cx="26.206" cy="9.123" r="3.933"/>
			<rect x="0" y="26.844" style="fill:#010002;" width="3.798" height="12.603"/>
			<path style="fill:#010002;" d="M44.178,30.771h-0.365c-2.047-3.236-10.396-16.449-10.399-16.449h-7.206h-7.72
				c0,0-7.391,11.295-9.844,15.04l-0.178-3.77H4.671v15.102h3.795v-6.964h6.47v11.245c0,1.239,1.005,2.241,2.244,2.241
				c1.235,0,2.24-1.002,2.24-2.241l-0.004-11.245h13.056v11.245c0,1.239,1.006,2.241,2.239,2.241c1.241,0,2.243-1.002,2.243-2.241
				V33.731h6.982v6.465h3.797V25.094h-3.797L44.178,30.771z M20.959,26.795l-6.023,1.511v2.468h-2.583v-0.001
				c2.276-3.451,8.632-13.123,8.632-13.123L20.959,26.795z M23.229,30.771l2.975-1.247l2.747,1.247H23.229z M36.953,30.77V28.3
				l-6.02-1.508l-0.019-9.146V17.64c0.002,0,6.899,9.786,9.26,13.131L36.953,30.77L36.953,30.77z"/>
			<rect x="48.609" y="26.343" style="fill:#010002;" width="3.797" height="12.602"/>
		</g>
	</g>
</g>
<g>
</g>
<g>
</g>
<g>
</g>
<g>
</g>
<g>
</g>
<g>
</g>
<g>
</g>
<g>
</g>
<g>
</g>
<g>
</g>
<g>
</g>
<g>
</g>
<g>
</g>
<g>
</g>
<g>
</g>
</svg>
